<svg width="24" height="26" viewBox="0 0 24 26" fill="none" xmlns="http://www.w3.org/2000/svg">
<path d="M13.0366 2.84955C13.0277 2.80098 13.0209 2.75035 13.0175 2.69904C12.9682 1.99095 13.5012 1.37658 14.2099 1.32664C14.9187 1.27738 15.5331 1.81102 15.5823 2.51979C15.6316 3.22789 15.0987 3.84225 14.3899 3.89219C14.3454 3.89562 14.3009 3.8963 14.2572 3.89425C14.2284 3.90177 14.2113 3.90519 14.1867 3.92709C14.1142 4.04066 14.3721 4.01945 14.1963 4.51614C14.1963 4.51614 14.1949 4.57087 14.1757 4.62492C14.1621 4.81579 14.0889 5.38022 14.0779 5.68124C14.1149 5.72503 14.1258 5.74624 14.1217 5.85159C14.1053 5.99458 14.0724 6.34487 14.0198 6.56927C13.9753 6.76151 13.8966 6.79846 13.833 6.84566C13.744 7.24384 13.7208 7.57428 13.4923 8.05797C13.4718 8.42468 13.4458 8.52456 13.3691 8.70381C13.3602 9.2436 13.3979 9.32433 13.0332 10.1795C12.9388 10.5797 13.0284 10.8561 13.1276 11.2721C13.2289 11.699 13.5107 11.8776 13.5532 12.3154C13.6517 13.3458 13.6271 14.047 13.4061 14.8543L13.599 15.3113C13.8385 15.4208 14.4323 15.7211 14.1032 16.1966C14.5671 16.4402 15.2676 16.6994 15.8457 17.1941C16.0784 17.3877 16.324 17.5991 16.5443 17.8468C16.9636 17.9124 16.9192 17.9453 17.2305 18.1368C18.1452 18.6978 19.6113 19.8103 20.4617 20.5977C20.6081 20.6832 20.6676 20.7448 20.786 20.8071C20.8044 20.8426 20.8092 20.8509 20.8051 20.8604C20.7648 20.9631 20.7661 20.9665 20.7292 21.0479C20.775 21.0985 20.8605 21.1457 20.9119 21.1902C20.9598 21.2052 20.9598 21.182 21.0418 21.1621C21.1486 21.262 21.2806 21.3428 21.3285 21.338C21.4735 21.301 21.4482 21.3311 21.5707 21.1943C21.6145 21.1491 21.6884 21.195 21.6884 21.195C21.7342 21.1409 21.8327 21.0335 21.9648 20.9562C22.0694 20.894 22.2699 20.8878 22.2699 20.8878C22.3369 20.8885 22.3246 20.9569 22.3185 20.9795C22.2425 21.0185 22.0818 21.0616 21.9921 21.1279C21.7958 21.3311 21.6418 21.6048 21.6418 21.6048C22.0373 21.5507 22.2802 21.6493 22.6099 21.6109C22.7898 21.6007 22.9226 21.6123 23.1107 21.4755C23.1107 21.4755 23.292 21.3462 23.4548 21.2778C23.6129 21.2087 23.7627 21.2456 23.9016 21.3469C23.9994 21.4577 24.0589 21.4584 23.9098 21.6144C23.8557 21.6753 23.7778 21.743 23.6786 21.8408C23.5041 22.0132 23.2694 22.2431 23.0259 22.4333C22.7796 22.6255 22.4998 22.7986 22.3253 22.8773C21.8847 23.1934 21.9887 23.1106 21.6425 23.4246C21.5987 23.4636 21.4831 23.5334 21.427 23.571C21.2902 23.6607 21.2478 23.5861 21.1588 23.4219C21.1588 23.4219 21.1185 23.3603 21.0507 23.2296C20.9775 23.0867 20.9221 22.9231 20.9447 22.9259C20.8626 22.9156 20.4938 22.4825 20.4925 22.3895C20.4145 22.3717 20.0813 22.0495 20.0697 21.9879L19.7748 21.7512C19.4375 21.8217 19.3595 21.6116 18.4688 20.9795C18.3668 20.9774 18.2102 20.9227 17.9844 20.7558C17.5821 20.4335 16.6175 19.7049 16.4533 19.6214C16.2774 19.5318 16.0674 19.4477 15.9388 19.3416C15.7459 19.306 15.6405 19.2862 15.544 19.2588C15.4455 19.2322 15.3559 19.1973 15.1062 19.1637C14.6998 19.1131 14.2784 18.9448 13.8775 18.7444C13.6873 18.6541 13.5224 18.6082 13.3589 18.5384C12.9922 18.3838 12.6775 18.2443 12.4339 18.1875C12.3409 18.1786 11.8989 18.0458 11.667 17.9104C11.5869 17.8687 11.5404 17.8297 11.487 17.8173C11.3653 17.7893 11.2873 17.8372 11.2325 17.8557C10.9349 18.0103 10.6565 18.1444 10.3992 18.2826C10.1598 18.4105 9.9395 18.5439 9.70552 18.678C9.4948 18.7998 9.25124 18.9147 9.00153 19.0338C9.00153 19.0338 8.28796 19.3916 7.898 19.5305C7.56003 19.8062 6.86904 20.2837 6.44692 20.5204C6.23825 20.6196 5.83187 20.8769 5.6451 20.9343C5.53837 21.0205 5.15798 21.2921 4.8597 21.5158C4.62982 21.6883 4.45536 21.8333 4.45536 21.8333C4.32196 21.953 4.33085 22.0098 4.07635 21.9017C4.00588 21.9599 3.95115 21.9961 3.90599 22.029C3.72264 22.1624 3.70691 22.1302 3.63986 22.1268C3.51192 22.2376 3.4955 22.1802 3.38399 22.3081C3.31078 22.4217 3.38536 22.395 3.23074 22.4497C3.1979 22.462 3.18285 22.5017 3.15754 22.5236C3.03302 22.6262 3.03234 22.9163 2.73405 22.9368C2.56096 23.06 2.60543 23.2091 2.47339 23.2023C2.4816 23.3302 2.23941 23.517 2.19631 23.5163C1.81592 23.6477 1.78924 23.3678 1.33223 23.5765C1.27339 23.6032 1.1865 23.6784 1.07225 23.6996C0.871112 23.7373 0.62824 23.6976 0.480464 23.5833C0.247169 23.4034 0.0330309 23.0572 0.0330309 23.0572C-0.0408571 22.8821 0.00224418 22.7713 0.233486 22.6057C0.329951 22.5441 0.347739 22.4983 0.509882 22.4873C0.589927 22.4572 0.568719 22.5038 0.711706 22.4518C0.795172 22.4217 0.795172 22.4429 0.962788 22.4285C1.0011 22.4025 1.05515 22.3936 1.12767 22.3697C1.26039 22.3259 1.3897 22.2773 1.3897 22.2773C1.3897 22.2773 1.42322 22.2431 1.55116 22.2554C1.65925 22.2109 1.77008 22.1459 1.82687 22.1254C1.8125 21.9544 1.83097 21.9626 1.91033 21.8935C2.00885 21.8087 2.02664 21.8223 2.10053 21.875C2.13131 21.8572 2.14636 21.8511 2.14294 21.8251C2.13063 21.7361 2.05469 21.6944 2.07727 21.4981C2.04306 21.4194 1.99312 21.3222 2.00406 21.2641C2.0198 21.2011 2.03553 21.1704 2.07384 21.1505C2.11489 21.1286 2.12789 21.158 2.14979 21.1827C2.18878 21.2278 2.22025 21.3626 2.22025 21.3626C2.23394 21.5145 2.28114 21.7101 2.43097 21.6C2.51922 21.5104 2.53633 21.2716 2.71694 21.3229L2.84556 21.4344C2.95434 21.3318 2.95982 21.3318 3.02549 21.2908C3.02549 21.2908 2.92356 21.1875 3.01318 21.1067C3.07475 21.052 3.14864 21.013 3.28 20.8673C3.64123 20.4684 3.82663 20.2919 4.2166 19.9704C4.99516 19.33 5.88181 18.8805 6.44487 18.6568C6.62822 18.4235 6.80678 18.2689 7.21453 18.2299C7.69891 17.4116 8.62661 16.6817 8.83939 16.5647C9.01247 16.2506 9.08773 16.2842 9.31487 16.2212C9.4948 16.0769 9.53516 16.0769 9.61589 15.927C9.69389 15.6164 9.43596 14.7873 10.0948 14.7455C10.235 14.5478 10.2002 14.595 10.3561 14.4082C10.2508 14.1476 10.207 13.9293 10.1783 13.7419C10.1728 13.72 9.91623 13.5394 9.98944 13.3033C9.88066 13.1733 9.67678 12.871 9.61316 12.7293C9.58374 12.73 9.55979 12.7191 9.52764 12.7143C9.49411 12.7088 9.45306 12.7109 9.40654 12.7068C9.30392 12.9715 9.19172 12.9914 9.00905 13.0502C8.68271 13.7453 8.56846 14.0388 7.64555 14.6135C7.27953 15.0233 7.16254 15.4803 7.16391 15.4735C7.10097 15.6089 7.12286 15.7984 7.15638 15.8997C7.10849 16.0502 7.1208 16.0652 7.1208 16.0652C7.14065 16.122 7.19332 16.1973 7.25763 16.213C7.36847 16.2424 7.4793 16.2376 7.47314 16.3608C7.45809 16.5154 7.25558 16.4901 7.1598 16.473C6.79036 16.4142 6.90735 16.174 6.67132 16.2541C6.4907 16.3724 6.42297 16.7213 6.12742 16.6762C6.08843 16.6502 6.10074 16.5742 6.12674 16.5188C6.16847 16.4326 6.24167 16.3615 6.19789 16.3293C6.00633 16.3895 5.62184 16.5175 5.62184 16.5175C5.44122 16.5667 5.24282 16.4764 5.4207 16.3581C5.50348 16.3259 5.62184 16.2855 5.76756 16.1925C5.76756 16.1925 5.84282 16.0906 5.69846 16.1412C5.54111 16.1973 5.30918 16.2322 5.14293 16.2137C5.14293 16.2137 4.79812 16.1685 4.75365 16.1412C4.70918 16.1138 4.66813 16.0078 4.77623 16.0078C4.91306 16.0091 5.25513 15.9688 5.5199 15.8983C5.64783 15.8484 5.89139 15.7047 6.02822 15.6363C6.02822 15.6363 6.176 15.4208 6.25809 15.3777C6.39424 15.221 6.50918 15.1286 6.62959 14.9686C6.74726 14.7257 6.86904 14.3412 7.259 13.746C7.43893 13.4716 7.66333 13.1521 7.9452 12.8662C7.9452 12.8662 8.01841 12.4085 8.38511 12.0835C8.46584 11.8926 8.58899 11.6682 8.71008 11.4609C8.75729 11.3809 8.80176 11.3118 8.84691 11.2358C8.96048 11.0573 9.08021 10.7248 9.52285 10.6728C9.52285 10.6728 9.71236 10.5325 9.78488 10.4333C9.89845 10.3362 9.87245 10.1857 9.96481 10.0789C9.82387 9.94143 9.46264 9.68214 9.42775 9.32228C9.39012 8.94052 9.52627 8.6265 9.75751 8.39389C10.0134 8.13802 10.2836 8.01008 10.6113 8.02924C11.0204 8.09013 11.0978 8.22559 11.2284 8.35968C11.3536 8.48693 11.4002 8.40484 11.4528 8.55398C11.7963 8.64497 11.7771 8.60529 11.7744 8.85774C11.8271 8.92889 11.9153 8.99525 11.9146 9.14235C12.0303 8.90289 12.0528 8.85911 12.3614 8.59503C12.4346 8.38089 12.4838 8.17017 12.5482 7.95603C12.6084 7.75832 12.6829 7.55444 12.7411 7.40119C12.6795 6.96812 12.8061 6.89697 12.9744 6.51727C12.9443 6.46528 12.9511 6.45022 12.9634 6.36471C13.0291 6.11362 13.131 5.78181 13.1919 5.56562C13.1919 5.56562 13.2118 5.47942 13.3007 5.47326C13.378 5.1996 13.493 4.68991 13.5128 4.58592C13.5922 4.29926 13.5409 4.20759 13.48 4.04613C13.4601 3.99345 13.4697 3.91819 13.4355 3.85936C13.3397 3.69242 13.2364 3.47555 13.1666 3.32025C13.1215 3.22173 13.0496 2.84955 13.0496 2.84955C12.9833 2.65936 13.0366 2.84955 13.0366 2.84955Z" fill="black"/>
</svg>
