<svg width="24" height="24" viewBox="0 0 24 24" fill="none" xmlns="http://www.w3.org/2000/svg">
<path d="M2.64738 15.9967C1.93228 15.9702 1.34722 15.7872 0.88975 15.4473C0.802444 15.3823 0.594403 15.1876 0.524607 15.1055C0.339097 14.8873 0.212975 14.675 0.128853 14.4394C-0.130004 13.7143 0.00322034 12.7627 0.509914 11.7183C0.94375 10.8242 1.61318 9.93743 2.78109 8.70926C2.95313 8.52854 3.46546 8 3.46877 8C3.46999 8 3.44207 8.04524 3.40693 8.10033C3.10326 8.57606 2.84342 9.13644 2.70187 9.62157C2.47448 10.4 2.50191 11.068 2.78219 11.586C2.97554 11.9429 3.30701 12.252 3.67974 12.4229C4.33227 12.7219 5.28762 12.7466 6.45431 12.4952C6.53464 12.4778 10.515 11.4896 15.2995 10.2991C20.0841 9.10849 23.9994 8.13514 24 8.13594C24.0013 8.13697 12.8841 12.5863 7.11297 14.8946C6.19901 15.26 5.9546 15.3523 5.52493 15.4934C4.42656 15.8542 3.44268 16.0263 2.64738 15.9967Z" fill="#12121D"/>
</svg>
